<svg width="24" height="24" viewBox="0 0 24 24" fill="none" xmlns="http://www.w3.org/2000/svg">
<path d="M1.125 22.9688H13.125C13.2245 22.9687 13.3198 22.9292 13.3902 22.8589C13.4605 22.7886 13.5 22.6932 13.5 22.5938V20.9062H22.875C23.1733 20.9059 23.4592 20.7873 23.6701 20.5764C23.881 20.3655 23.9997 20.0795 24 19.7812V1.96875C23.9997 1.67048 23.881 1.38452 23.6701 1.17361C23.4592 0.962707 23.1733 0.844076 22.875 0.84375H9.9375C9.83875 0.845986 9.74466 0.886213 9.67481 0.95606C9.60496 1.02591 9.56474 1.12 9.5625 1.21875V2.90625H1.125C0.826731 2.90658 0.540772 3.02521 0.329864 3.23611C0.118957 3.44702 0.000325573 3.73298 0 4.03125L0 21.8438C0.000325573 22.142 0.118957 22.428 0.329864 22.6389C0.540772 22.8498 0.826731 22.9684 1.125 22.9688ZM22.875 1.59375C22.9744 1.59385 23.0697 1.63339 23.1401 1.70369C23.2104 1.774 23.2499 1.86932 23.25 1.96875V19.7812C23.2499 19.8807 23.2103 19.976 23.14 20.0463C23.0697 20.1166 22.9744 20.1561 22.875 20.1562H13.5V3.28125C13.4999 3.25417 13.4968 3.22718 13.4909 3.20075C13.4953 3.1332 13.4812 3.06572 13.4502 3.00554C13.4192 2.94536 13.3724 2.89474 13.3149 2.8591L11.2611 1.59375H22.875ZM10.3125 1.89019L11.9617 2.90625H10.3125V1.89019ZM0.75 4.03125C0.750099 3.93182 0.78964 3.8365 0.859945 3.76619C0.930249 3.69589 1.02557 3.65635 1.125 3.65625H3.21973L0.75 6.12598V4.03125ZM0.75 13.5323C1.17933 13.576 1.61062 13.5976 2.04217 13.597C2.86699 13.602 3.68983 13.5157 4.49565 13.3396C4.31432 13.1353 4.16136 12.9075 4.04091 12.6624C2.95448 12.8523 1.84699 12.8908 0.75 12.7767V7.18652L4.28027 3.65625H12.75V8.34502C11.58 8.35824 10.2674 8.51315 8.81681 9.51568C8.86546 9.56324 8.91216 9.60976 8.95596 9.65359L9.00293 9.70047C9.10866 9.80613 9.22812 9.92569 9.34758 10.0609C10.584 9.24066 11.6983 9.10736 12.75 9.09494V22.2188H1.125C1.02558 22.2186 0.930262 22.1791 0.85996 22.1088C0.789659 22.0385 0.750114 21.9432 0.75 21.8438V13.5323Z" fill="black"/>
<path d="M4.125 16.7812H11.625C11.7245 16.7812 11.8198 16.7417 11.8902 16.6714C11.9605 16.6011 12 16.5057 12 16.4062C12 16.3068 11.9605 16.2114 11.8902 16.1411C11.8198 16.0708 11.7245 16.0312 11.625 16.0312H4.125C4.02554 16.0312 3.93016 16.0708 3.85984 16.1411C3.78951 16.2114 3.75 16.3068 3.75 16.4062C3.75 16.5057 3.78951 16.6011 3.85984 16.6714C3.93016 16.7417 4.02554 16.7812 4.125 16.7812Z" fill="black"/>
<path d="M4.125 18.2812H11.625C11.7245 18.2812 11.8198 18.2417 11.8902 18.1714C11.9605 18.1011 12 18.0057 12 17.9062C12 17.8068 11.9605 17.7114 11.8902 17.6411C11.8198 17.5708 11.7245 17.5312 11.625 17.5312H4.125C4.02554 17.5312 3.93016 17.5708 3.85984 17.6411C3.78951 17.7114 3.75 17.8068 3.75 17.9062C3.75 18.0057 3.78951 18.1011 3.85984 18.1714C3.93016 18.2417 4.02554 18.2812 4.125 18.2812Z" fill="black"/>
<path d="M4.125 19.7812H11.625C11.7245 19.7812 11.8198 19.7417 11.8902 19.6714C11.9605 19.6011 12 19.5057 12 19.4062C12 19.3068 11.9605 19.2114 11.8902 19.1411C11.8198 19.0708 11.7245 19.0312 11.625 19.0312H4.125C4.02554 19.0312 3.93016 19.0708 3.85984 19.1411C3.78951 19.2114 3.75 19.3068 3.75 19.4062C3.75 19.5057 3.78951 19.6011 3.85984 19.6714C3.93016 19.7417 4.02554 19.7812 4.125 19.7812Z" fill="black"/>
<path d="M5.4498 13.2537C5.81812 13.6223 6.27652 14.0812 6.93771 14.0812C7.59891 14.0812 8.05731 13.6223 8.42563 13.2537L8.47305 13.2063C8.84165 12.8381 9.30023 12.3798 9.30023 11.7188C9.30023 11.0576 8.84146 10.5992 8.47278 10.2308L8.42563 10.1837C8.05731 9.815 7.59891 9.35623 6.93771 9.35623C6.27652 9.35623 5.81812 9.815 5.4498 10.1837L5.40265 10.2308C5.03397 10.5992 4.5752 11.0576 4.5752 11.7188C4.5752 12.3798 5.03378 12.8381 5.40237 13.2063L5.4498 13.2537ZM5.93274 10.7614L5.98035 10.7138C6.27881 10.4151 6.58743 10.1062 6.93772 10.1062C7.28801 10.1062 7.59663 10.4151 7.8951 10.7138L7.94271 10.7614C8.24135 11.0598 8.55025 11.3685 8.55025 11.7188C8.55025 12.0689 8.24153 12.3774 7.94298 12.6757L7.8951 12.7236C7.59664 13.0223 7.28801 13.3312 6.93772 13.3312C6.58743 13.3312 6.27882 13.0223 5.98035 12.7236L5.93247 12.6757C5.63391 12.3774 5.3252 12.0689 5.3252 11.7188C5.3252 11.3685 5.63409 11.0598 5.93274 10.7614Z" fill="black"/>
<path d="M1.875 16.7812H2.625C2.72446 16.7812 2.81984 16.7417 2.89016 16.6714C2.96049 16.6011 3 16.5057 3 16.4062C3 16.3068 2.96049 16.2114 2.89016 16.1411C2.81984 16.0708 2.72446 16.0312 2.625 16.0312H1.875C1.77554 16.0312 1.68016 16.0708 1.60984 16.1411C1.53951 16.2114 1.5 16.3068 1.5 16.4062C1.5 16.5057 1.53951 16.6011 1.60984 16.6714C1.68016 16.7417 1.77554 16.7812 1.875 16.7812Z" fill="black"/>
<path d="M1.875 18.2812H2.625C2.72446 18.2812 2.81984 18.2417 2.89016 18.1714C2.96049 18.1011 3 18.0057 3 17.9062C3 17.8068 2.96049 17.7114 2.89016 17.6411C2.81984 17.5708 2.72446 17.5312 2.625 17.5312H1.875C1.77554 17.5312 1.68016 17.5708 1.60984 17.6411C1.53951 17.7114 1.5 17.8068 1.5 17.9062C1.5 18.0057 1.53951 18.1011 1.60984 18.1714C1.68016 18.2417 1.77554 18.2812 1.875 18.2812Z" fill="black"/>
<path d="M1.875 19.7812H2.625C2.72446 19.7812 2.81984 19.7417 2.89016 19.6714C2.96049 19.6011 3 19.5057 3 19.4062C3 19.3068 2.96049 19.2114 2.89016 19.1411C2.81984 19.0708 2.72446 19.0312 2.625 19.0312H1.875C1.77554 19.0312 1.68016 19.0708 1.60984 19.1411C1.53951 19.2114 1.5 19.3068 1.5 19.4062C1.5 19.5057 1.53951 19.6011 1.60984 19.6714C1.68016 19.7417 1.77554 19.7812 1.875 19.7812Z" fill="black"/>
<path d="M15 9H21.75C21.8495 9 21.9448 8.96048 22.0152 8.89016C22.0855 8.81983 22.125 8.72445 22.125 8.625V4.875C22.125 4.77555 22.0855 4.68017 22.0152 4.60984C21.9448 4.53952 21.8495 4.5 21.75 4.5H15C14.9005 4.5 14.8052 4.53952 14.7348 4.60984C14.6645 4.68017 14.625 4.77555 14.625 4.875V8.625C14.625 8.72445 14.6645 8.81983 14.7348 8.89016C14.8052 8.96048 14.9005 9 15 9ZM15.375 5.25H21.375V8.25H15.375V5.25Z" fill="black"/>
<path d="M15 11.8125H21.75C21.8495 11.8125 21.9448 11.773 22.0152 11.7027C22.0855 11.6323 22.125 11.537 22.125 11.4375C22.125 11.338 22.0855 11.2427 22.0152 11.1723C21.9448 11.102 21.8495 11.0625 21.75 11.0625H15C14.9005 11.0625 14.8052 11.102 14.7348 11.1723C14.6645 11.2427 14.625 11.338 14.625 11.4375C14.625 11.537 14.6645 11.6323 14.7348 11.7027C14.8052 11.773 14.9005 11.8125 15 11.8125Z" fill="black"/>
<path d="M15 13.6875H21.75C21.8495 13.6875 21.9448 13.648 22.0152 13.5777C22.0855 13.5073 22.125 13.412 22.125 13.3125C22.125 13.213 22.0855 13.1177 22.0152 13.0473C21.9448 12.977 21.8495 12.9375 21.75 12.9375H15C14.9005 12.9375 14.8052 12.977 14.7348 13.0473C14.6645 13.1177 14.625 13.213 14.625 13.3125C14.625 13.412 14.6645 13.5073 14.7348 13.5777C14.8052 13.648 14.9005 13.6875 15 13.6875Z" fill="black"/>
<path d="M15 15.5625H21.75C21.8495 15.5625 21.9448 15.523 22.0152 15.4527C22.0855 15.3823 22.125 15.287 22.125 15.1875C22.125 15.088 22.0855 14.9927 22.0152 14.9223C21.9448 14.852 21.8495 14.8125 21.75 14.8125H15C14.9005 14.8125 14.8052 14.852 14.7348 14.9223C14.6645 14.9927 14.625 15.088 14.625 15.1875C14.625 15.287 14.6645 15.3823 14.7348 15.4527C14.8052 15.523 14.9005 15.5625 15 15.5625Z" fill="black"/>
<path d="M15 17.4375H21.75C21.8495 17.4375 21.9448 17.398 22.0152 17.3277C22.0855 17.2573 22.125 17.162 22.125 17.0625C22.125 16.963 22.0855 16.8677 22.0152 16.7973C21.9448 16.727 21.8495 16.6875 21.75 16.6875H15C14.9005 16.6875 14.8052 16.727 14.7348 16.7973C14.6645 16.8677 14.625 16.963 14.625 17.0625C14.625 17.162 14.6645 17.2573 14.7348 17.3277C14.8052 17.398 14.9005 17.4375 15 17.4375Z" fill="black"/>
</svg>
