<svg width="24" height="24" viewBox="0 0 24 24" fill="none" xmlns="http://www.w3.org/2000/svg">
<g clip-path="url(#clip0_891_170)">
<path d="M17.7029 24C17.5139 24 17.3209 23.976 17.1299 23.926L1.6659 19.785C0.4729 19.456 -0.2381 18.222 0.0738996 17.03L1.7739 10.511C1.8779 10.111 2.2869 9.86801 2.6889 9.97501C3.0889 10.079 3.3299 10.489 3.2249 10.89L1.5249 17.41C1.4199 17.812 1.6589 18.227 2.0589 18.337L17.5139 22.476C17.9109 22.581 18.3209 22.345 18.4249 21.95L18.9529 19.82C19.0529 19.418 19.4589 19.174 19.8609 19.272C20.2629 19.372 20.5079 19.778 20.4089 20.18L19.8789 22.32C19.6119 23.333 18.6999 24 17.7029 24Z" fill="black"/>
<path d="M21.75 18H6.25C5.009 18 4 16.991 4 15.75V4.25C4 3.009 5.009 2 6.25 2H21.75C22.991 2 24 3.009 24 4.25V15.75C24 16.991 22.991 18 21.75 18ZM6.25 3.5C5.836 3.5 5.5 3.836 5.5 4.25V15.75C5.5 16.164 5.836 16.5 6.25 16.5H21.75C22.164 16.5 22.5 16.164 22.5 15.75V4.25C22.5 3.836 22.164 3.5 21.75 3.5H6.25Z" fill="black"/>
<path d="M9 9C7.897 9 7 8.103 7 7C7 5.897 7.897 5 9 5C10.103 5 11 5.897 11 7C11 8.103 10.103 9 9 9ZM9 6.5C8.724 6.5 8.5 6.724 8.5 7C8.5 7.276 8.724 7.5 9 7.5C9.276 7.5 9.5 7.276 9.5 7C9.5 6.724 9.276 6.5 9 6.5Z" fill="black"/>
<path d="M4.77001 16.98C4.57801 16.98 4.38601 16.907 4.24001 16.76C3.94701 16.467 3.94701 15.992 4.24001 15.699L8.76001 11.179C9.44401 10.495 10.557 10.495 11.24 11.179L12.449 12.388L16.163 7.93001C16.495 7.53201 16.982 7.30201 17.499 7.29901C18.055 7.26801 18.505 7.52101 18.84 7.91401L23.818 13.722C24.088 14.036 24.051 14.51 23.737 14.78C23.422 15.05 22.949 15.013 22.679 14.699L17.699 8.88901C17.633 8.81001 17.552 8.81401 17.507 8.80001C17.464 8.80001 17.381 8.81301 17.315 8.89101L13.075 13.981C12.94 14.143 12.743 14.241 12.533 14.25C12.319 14.262 12.117 14.18 11.969 14.031L10.179 12.241C10.052 12.114 9.94701 12.114 9.82001 12.241L5.30001 16.76C5.15401 16.907 4.96201 16.98 4.77001 16.98Z" fill="black"/>
</g>
<defs>
<clipPath id="clip0_891_170">
<rect width="24" height="24" fill="white"/>
</clipPath>
</defs>
</svg>
