<svg width="25" height="25" viewBox="0 0 25 25" fill="none" xmlns="http://www.w3.org/2000/svg">
<path fill-rule="evenodd" clip-rule="evenodd" d="M23.0268 10.0916H6.36806L22.369 5.45635C22.4934 5.4203 22.5983 5.33619 22.6608 5.22289C22.7234 5.10941 22.7383 4.97589 22.7022 4.85153L21.8649 1.96095C21.5303 0.806427 20.4554 0 19.2507 0C18.9968 0 18.7439 0.0360489 18.4986 0.107002L3.47537 4.459C2.78052 4.66022 2.2047 5.12218 1.85355 5.75943C1.5026 6.39668 1.4202 7.13043 1.62143 7.82509L2.43949 10.6491V22.2826C2.43949 23.781 3.65848 25 5.1567 25H11.0241C11.2938 25 11.5124 24.7814 11.5124 24.5117C11.5124 24.242 11.2938 24.0234 11.0241 24.0234H5.15689C4.19692 24.0234 3.41605 23.2426 3.41605 22.2826V15.6378H5.91754H5.91869H5.91964H9.74349H9.74464H9.74578H13.5696H13.5708H13.5719H17.3958H17.3969H17.3979H22.5386V22.2826C22.5386 23.2426 21.7577 24.0234 20.7977 24.0234H14.9303C14.6608 24.0234 14.4421 24.242 14.4421 24.5117C14.4421 24.7814 14.6608 25 14.9303 25H20.7977C22.2961 25 23.5151 23.781 23.5151 22.2826V10.5799C23.5151 10.3102 23.2965 10.0916 23.0268 10.0916ZM14.4169 14.6612L16.4915 11.0682H19.1898L17.1154 14.6612H14.4169ZM10.5907 14.6612L12.6654 11.0682H15.3637L13.2893 14.6612H10.5907ZM6.76479 14.6612L8.83922 11.0682H11.5377L9.46311 14.6612H6.76479ZM8.5802 8.34007L5.10615 5.00336L7.70911 4.24938C7.72742 4.27608 7.74879 4.30126 7.7732 4.32472L11.2472 7.66144L8.64429 8.41541C8.62598 8.38871 8.60442 8.36334 8.5802 8.34007ZM15.1232 2.19555L18.5972 5.53226L15.9943 6.28624C15.9759 6.25954 15.9546 6.23417 15.9302 6.2109L12.4561 2.87418L15.0591 2.12021C15.0774 2.14691 15.0988 2.17209 15.1232 2.19555ZM11.4481 3.26023L14.9221 6.59676L12.3192 7.35092C12.3009 7.32422 12.2795 7.29885 12.2551 7.27558L8.78104 3.93887L11.384 3.18489C11.4025 3.2114 11.4239 3.23677 11.4481 3.26023ZM18.7704 1.04504C18.9272 0.999641 19.0887 0.976562 19.2507 0.976562C20.0233 0.976562 20.7125 1.49307 20.9268 2.23274L21.6284 4.65412L19.6693 5.22156C19.6508 5.19485 19.6295 5.16968 19.6051 5.14622L16.1312 1.80969L18.7704 1.04504ZM2.709 6.23055C2.93407 5.8218 3.30276 5.52578 3.74717 5.39703L4.03403 5.31387C4.05254 5.34058 4.0739 5.36594 4.09812 5.38921L7.57217 8.72593L3.26099 9.97486L2.55946 7.55348C2.43072 7.10926 2.48393 6.63948 2.709 6.23055ZM3.41605 11.0682H7.71159L5.63716 14.6612H3.41605V11.0682ZM18.243 14.6612L20.3175 11.0682H22.5386V14.6612H18.243Z" fill="black"/>
<path fill-rule="evenodd" clip-rule="evenodd" d="M16.3535 19.7809C16.3535 19.6064 16.2605 19.4452 16.1094 19.3581L11.8196 16.8814C11.6685 16.7942 11.4824 16.7942 11.3313 16.8814C11.1802 16.9685 11.0872 17.1297 11.0872 17.3042V22.2576C11.0872 22.432 11.1802 22.5931 11.3313 22.6803C11.4068 22.724 11.4911 22.7459 11.5754 22.7459C11.6597 22.7459 11.744 22.724 11.8196 22.6803L16.1094 20.2038C16.2605 20.1166 16.3535 19.9555 16.3535 19.7809ZM12.0637 21.4119V18.15L14.8887 19.7809L12.0637 21.4119Z" fill="black"/>
<path fill-rule="evenodd" clip-rule="evenodd" d="M12.9773 24.0234C12.7084 24.0234 12.489 24.2428 12.489 24.5117C12.489 24.7807 12.7084 25 12.9773 25C13.2464 25 13.4656 24.7807 13.4656 24.5117C13.4656 24.2428 13.2464 24.0234 12.9773 24.0234Z" fill="black"/>
</svg>
